<?xml version="1.0" encoding="UTF-8"?>
<svg id="uuid-b1a45f52-a702-4575-b0d2-5e3a92b431eb" data-name="Layer_2" xmlns="http://www.w3.org/2000/svg" viewBox="0 0 16.01 16.01">
  <defs>
    <style>
      .uuid-d4288576-1f84-4f76-95c3-cbb1ef5f97fa {
        fill: #317abe;
      }

      .uuid-2de1727e-b4ae-4656-a3ea-1b738d8feed9 {
        fill: #f7ec13;
      }
    </style>
  </defs>
  <g id="uuid-132faab9-2046-4818-a744-a54937222c38" data-name="Layer_1">
    <rect class="uuid-d4288576-1f84-4f76-95c3-cbb1ef5f97fa" width="16.01" height="16.01" rx="2" ry="2"/>
    <g>
      <path class="uuid-2de1727e-b4ae-4656-a3ea-1b738d8feed9" d="M5.25,8h0c0,1.4,1.14,2.54,2.54,2.54h2.37c.47,0,.85.38.85.85h0c0,.47-.38.85-.85.85h-2.37c-2.34,0-4.23-1.9-4.23-4.23h0c0-2.34,1.9-4.23,4.23-4.23h2.37c.47,0,.85.38.85.85h0c0,.47-.38.85-.85.85h-2.37c-1.4,0-2.54,1.14-2.54,2.54Z"/>
      <rect class="uuid-2de1727e-b4ae-4656-a3ea-1b738d8feed9" x="6.34" y="6.98" width="6.1" height="2.03" rx="1.02" ry="1.02"/>
    </g>
  </g>
</svg>