<svg width="36" height="36" viewBox="0 0 36 36" fill="none" xmlns="http://www.w3.org/2000/svg">
<g clip-path="url(#clip0_1_11)">
<path d="M23.08 10.24C23.99 9.79 24.44 9.85 24.45 10.3C24.46 10.89 24.38 11.67 24.31 12.24C23.97 15.32 23.41 17.83 23.37 21C24.86 17.15 26.1 14.48 27.71 11.18C28.22 10.13 28.55 10.33 28.96 10.14C30.59 9.41 30.65 9.86 30.44 10.75C29.65 14.04 27.62 24.4 27.31 25.99C27.22 26.45 26.72 26.26 26.59 26.08C26.01 25.28 25.35 25.26 25.43 24.73C25.79 22.07 27.1 15.4 27.45 13.83C25.71 17.4 23.9 21.86 22.97 24.4C22.77 24.94 22.42 24.9 22.19 24.5C21.88 23.95 21.27 23.67 21.17 23.01C20.85 20.93 21.53 16.98 21.63 14.48C20.68 17.21 19.09 22.52 18.39 24.92C18.1 25.91 17.14 25.75 17.4 24.78C18.46 20.76 20.74 13.64 21.73 11.08C21.96 10.48 22.57 10.5 23.08 10.25" fill="#CC2027"/>
<path d="M17.3 9.74C16.99 9.67 16.1 10.15 15.55 10.24C15.38 10.27 15.21 10.45 15.15 10.59C14.27 12.61 13.49 14.53 12.8 16.28C11.93 16.43 10.91 16.62 9.77 16.88C10.59 14.78 11.41 12.72 12.22 10.73C12.62 9.75 11.57 9.66 11.17 10.65C10.64 11.94 9.66 14.35 8.57 17.17C7.77 17.37 6.92 17.59 6.03 17.85C5.38 18.04 5.36 18.21 5.64 18.6C5.79 18.82 6.11 18.79 6.26 18.95C6.64 19.35 6.86 19.82 7.54 19.9C6.94 21.51 6.34 23.16 5.79 24.76C5.45 25.76 6.42 25.97 6.8 24.91C7.4 23.2 8.04 21.47 8.69 19.75C9.23 19.62 10.55 19.34 11.77 19.08C10.81 21.72 10.17 23.73 9.93 24.71C9.89 24.9 9.96 25 10 25.08C10.33 25.55 10.64 25.57 11.05 26.16C11.16 26.32 11.54 26.41 11.67 26.01C12.56 23.31 13.48 20.78 14.34 18.5C14.7 18.42 15.34 18.27 15.73 17.68C16.43 16.64 16.63 16.85 16.8 16.54C17.01 16.14 16.87 15.77 16.13 15.86C16.13 15.86 15.85 15.88 15.33 15.94C16.16 13.81 16.88 12.01 17.4 10.64C17.58 10.17 17.6 9.84 17.31 9.77" fill="#CC2027"/>
<path d="M16.08 23.52C16.27 24.01 16.87 23.86 16.64 23.27C16.41 22.67 15.83 20.88 15.68 20.3C15.47 19.52 16.37 19.73 15.91 20.24C15.52 20.68 15.26 20.85 14.54 21.69C13.85 22.5 14.03 23.54 14.78 23.77C15.62 24.03 16.36 23.11 16.81 22.43C17.25 21.77 16.82 21.39 16.38 21.78C16.09 22.03 15.76 22.41 15.43 22.62C15.16 22.79 14.94 22.61 15.31 22.11C15.73 21.53 16.21 21.04 16.56 20.49C17.28 19.37 15.86 18.73 15.25 19.45C14.92 19.84 15.01 20.22 15.09 20.54C15.23 21.06 15.77 22.73 16.08 23.51" fill="#CC2027"/>
</g>
<defs>
<clipPath id="clip0_1_11">
<rect width="36" height="36" fill="white"/>
</clipPath>
</defs>
</svg>
