<svg width="36" height="36" viewBox="0 0 36 36" fill="none" xmlns="http://www.w3.org/2000/svg">
<g clip-path="url(#clip0_1_5)">
<path fill-rule="evenodd" clip-rule="evenodd" d="M30.24 12.33C23.48 11.65 13.6 13.12 6.72 15.94L6.31 16.12C6.44 16.12 6.52 16.12 6.52 16.12C7.67 16.15 7.6 16.87 7.6 16.87V17.31H6.69V17.01C6.69 16.8 6.44 16.78 6.44 16.78C6.24 16.78 6.2 16.91 6.2 16.91C6.09 17.11 6.28 17.29 6.28 17.29C6.37 17.4 6.85 17.62 6.85 17.62C7 17.68 7.25 17.84 7.25 17.84C7.72 18.12 7.67 18.66 7.67 18.66V19.01C7.61 19.89 6.42 19.86 6.42 19.86C5.17 19.86 5.2 19.03 5.2 19.03V18.6H6.17V18.9C6.17 19.15 6.41 19.17 6.41 19.17C6.67 19.18 6.7 18.92 6.7 18.92C6.74 18.67 6.46 18.51 6.46 18.51C6.22 18.38 5.97 18.25 5.73 18.12C5.51 17.97 5.42 17.84 5.42 17.84C5.26 17.64 5.27 17.32 5.27 17.32V17.04C5.27 16.66 5.37 16.55 5.37 16.55C-1.37 19.74 -0.600002 23.06 5.68 23.68C12.54 24.35 22.9 23.01 29.86 19.86C29.84 19.86 29.82 19.86 29.8 19.86C29.8 19.86 28.62 19.96 28.59 18.99V17.13C28.59 17.13 28.44 16.1 29.76 16.1C29.76 16.1 30.62 16.07 30.85 16.59C30.85 16.59 30.96 16.73 30.93 17.3H30.01V17.01C30.01 17.01 30.01 16.77 29.77 16.77C29.77 16.77 29.52 16.78 29.52 16.98V18.91C29.52 18.91 29.51 19.17 29.79 19.17C29.79 19.17 30.02 19.17 30.02 18.89V18.33H29.77V17.81H30.95V18.9C30.95 18.9 30.95 19.13 30.85 19.26C30.85 19.26 30.78 19.37 30.74 19.41L31.12 19.22C37.29 16.02 36.51 12.95 30.24 12.32V12.33ZM10.32 19.75L9.96 17.02H9.88L9.52 19.75H8.55L9.15 16.23H10.68L11.28 19.75H10.31H10.32ZM15.23 19.75L15.21 17.1H15.15L14.68 19.75H13.73L13.25 17.1H13.18V19.75H12.27L12.35 16.23H13.88L14.17 18.15H14.24L14.55 16.23H16.06L16.16 19.75H15.25H15.23ZM19.7 18.67V19.02C19.64 19.9 18.45 19.87 18.45 19.87C17.2 19.87 17.23 19.04 17.23 19.04V18.61H18.2V18.91C18.2 19.16 18.44 19.18 18.44 19.18C18.7 19.19 18.73 18.93 18.73 18.93C18.77 18.68 18.49 18.52 18.49 18.52C18.22 18.38 17.76 18.13 17.76 18.13C17.54 17.98 17.45 17.85 17.45 17.85C17.29 17.65 17.3 17.33 17.3 17.33V17.05C17.3 16.67 17.4 16.56 17.4 16.56C17.66 16.07 18.56 16.13 18.56 16.13C19.71 16.16 19.64 16.88 19.64 16.88V17.32H18.73V17.02C18.73 16.81 18.48 16.79 18.48 16.79C18.28 16.79 18.24 16.92 18.24 16.92C18.13 17.12 18.32 17.3 18.32 17.3C18.41 17.41 18.89 17.63 18.89 17.63C19.04 17.69 19.29 17.85 19.29 17.85C19.76 18.13 19.71 18.67 19.71 18.67H19.7ZM23.3 18.91C23.3 19.88 22.09 19.86 22.09 19.86C20.7 19.86 20.8 18.86 20.8 18.86V16.22H21.79V18.88C21.79 19.18 22.07 19.16 22.07 19.16C22.33 19.16 22.32 18.87 22.32 18.87V16.22H23.29V18.9L23.3 18.91ZM27.42 19.75H26.34L25.38 17.6H25.34L25.39 19.75H24.49V16.23H25.6L26.53 18.36H26.57L26.5 16.23H27.42V19.75Z" fill="#2E509F"/>
</g>
<defs>
<clipPath id="clip0_1_5">
<rect width="36" height="36" fill="white"/>
</clipPath>
</defs>
</svg>
